<svg width="576" height="512" viewBox="0 0 576 512" xmlns="http://www.w3.org/2000/svg" xmlns:xlink="http://www.w3.org/1999/xlink">
    <path id="Trac" fill="#e6e6e6" stroke="none" d="M 448 192 L 96 192 L 96 320 L 448 320 L 448 192 Z M 544 192 L 544 160 C 544 124.649994 515.349976 96 480 96 L 64 96 C 28.65 96 0 124.700012 0 160 L 0 352 C 0 387.350006 28.65 416 64 416 L 480 416 C 515.349976 416 544 387.350006 544 352 L 544 320 C 561.669983 320 576 305.670013 576 288 L 576 224 C 576 206.299988 561.700012 192 544 192 Z M 480 352 L 64 352 L 64 160 L 480 160 L 480 352 Z"/>
</svg>
