<svg width="640" height="512" viewBox="0 0 640 512" xmlns="http://www.w3.org/2000/svg" xmlns:xlink="http://www.w3.org/1999/xlink">
    <path id="Trac" fill="#ebebeb" stroke="none" d="M 216 288 L 168 288 C 159.160004 288 152 295.160004 152 304 L 152 496 C 152 504.839996 159.160004 512 168 512 L 216 512 C 224.839996 512 232 504.839996 232 496 L 232 304 C 232 295.160004 224.839996 288 216 288 Z M 88 384 L 40 384 C 31.16 384 24 391.160004 24 400 L 24 496 C 24 504.839996 31.16 512 40 512 L 88 512 C 96.839996 512 104 504.839996 104 496 L 104 400 C 104 391.160004 96.839996 384 88 384 Z M 344 192 L 296 192 C 287.160004 192 280 199.160004 280 208 L 280 496 C 280 504.839996 287.160004 512 296 512 L 344 512 C 352.839996 512 360 504.839996 360 496 L 360 208 C 360 199.160004 352.839996 192 344 192 Z M 472 96 L 424 96 C 415.160004 96 408 103.160004 408 112 L 408 496 C 408 504.839996 415.160004 512 424 512 L 472 512 C 480.839996 512 488 504.839996 488 496 L 488 112 C 488 103.160004 480.839996 96 472 96 Z M 600 0 L 552 0 C 543.159973 0 536 7.160004 536 16 L 536 496 C 536 504.839996 543.159973 512 552 512 L 600 512 C 608.840027 512 616 504.839996 616 496 L 616 16 C 616 7.160004 608.840027 0 600 0 Z"/>
</svg>
