<svg width="640" height="512" viewBox="0 0 640 512" xmlns="http://www.w3.org/2000/svg" xmlns:xlink="http://www.w3.org/1999/xlink">
    <path id="Trac" fill="#e6e6e6" stroke="none" d="M 319.100006 351.100006 C 283.75 351.100006 255.100006 379.76001 255.100006 415.109985 C 255.100006 450.459991 283.76001 479.119995 319.100006 479.119995 C 354.440002 479.119995 383.100006 450.459991 383.100006 415.109985 C 383.100006 379.76001 355.299988 351.100006 319.100006 351.100006 Z M 320 191.100006 C 249.75 191.100006 182.100006 216.700012 129.5 263.130005 C 116.300003 275.700012 115 295.899994 126.699997 309.200012 C 138.5 322.399994 158.699997 323.700012 171.899994 312 C 212.800003 275.899994 265.399994 256 320 256 C 374.600006 256 427.299988 275.880005 468.100006 312 C 474.200012 317.399994 481.799988 320 489.299988 320 C 498.144012 320 506.959991 316.343994 513.299988 309.190002 C 525 295.899994 523.799988 275.700012 510.5 264 C 457.899994 217.600006 390.299988 191.100006 320 191.100006 Z M 630.200012 156.700012 C 546.299988 76.279999 436.200012 32 320 32 C 203.800003 32 93.690002 76.279999 9.844 156.700012 C -2.906 168.950012 -3.316 189.200012 8.9065 201.950012 C 21.126499 214.72998 41.376499 215.070007 54.156502 202.887512 C 125.099998 133.100006 220.399994 96 320 96 C 419.600006 96 513.099976 133.970001 585.799988 202.899994 C 592.099976 208.799988 600 211.799988 608 211.799988 C 616.406006 211.799988 624.809998 208.518982 631.090027 201.955994 C 643.299988 189.200012 642.900024 168.100006 630.200012 156.700012 Z"/>
</svg>
