<svg width="377" height="448" viewBox="0 0 377 448" xmlns="http://www.w3.org/2000/svg" xmlns:xlink="http://www.w3.org/1999/xlink">
    <path id="Trac" fill="#ffffff" stroke="none" d="M 315.20166 236.700012 C 315.001343 200 331.627808 172.299988 365.281372 151.899994 C 346.451385 125 318.006104 110.200012 280.44635 107.299988 C 244.889755 104.5 206.027893 128 191.805267 128 C 176.781357 128 142.326523 108.299988 115.283478 108.299988 C 59.394527 109.200012 0 152.799988 0 241.5 C 0 267.700012 4.807652 294.766663 14.422955 322.700012 C 27.243359 359.399994 73.517006 449.399994 121.793839 447.899994 C 147.034012 447.299988 164.862396 430 197.714661 430 C 229.565353 430 246.09166 447.899994 274.23645 447.899994 C 322.91391 447.200012 364.780579 365.399994 377 328.600006 C 311.696075 297.899994 315.20166 238.600006 315.20166 236.700012 Z M 258.511444 72.5 C 285.85495 40.100006 283.350952 10.600006 282.549683 0 C 258.411255 1.399994 230.466797 16.399994 214.541443 34.899994 C 197.01355 54.700012 186.697128 79.200012 188.90065 106.799988 C 215.042236 108.799988 238.880188 95.399994 258.511444 72.5 Z"/>
</svg>
