<svg width="496" height="512" viewBox="0 0 496 512" xmlns="http://www.w3.org/2000/svg" xmlns:xlink="http://www.w3.org/1999/xlink">
    <path id="Trac" fill="#757575" stroke="none" d="M 131.5 217.5 L 55.099998 100.100006 C 102.699997 40.899994 174.100006 8.299988 247.100006 8 C 289.399994 7.700012 332.600006 18.5 371.899994 41.200012 C 415.299988 66.399994 448.299988 102.600006 469.299988 144.200012 L 264 133.399994 C 205.899994 130 150.600006 162.700012 131.5 217.5 Z M 164.399994 256 C 164.399994 302.200012 201.800003 339.600006 248 339.600006 C 294.200012 339.600006 331.600006 302.200012 331.600006 256 C 331.600006 209.799988 294.200012 172.399994 248 172.399994 C 201.800003 172.399994 164.399994 209.700012 164.399994 256 Z M 479.299988 166.799988 L 339.600006 174 C 377.5 218.299988 378.100006 282.200012 346.200012 331.200012 L 234.100006 503.600006 C 280.600006 506.100006 328.5 495.899994 371.899994 470.700012 C 479.299988 408.700012 522.799988 278.700012 479.299988 166.799988 Z M 133.699997 303.600006 L 40.400002 120.100006 C 14.9 159.100006 0 205.899994 0 256 C 0 380 90.800003 482.700012 209.5 500.899994 L 273.200012 376.100006 C 215.600006 386.899994 160 355.299988 133.699997 303.600006 Z"/>
</svg>
