<svg width="512" height="512" viewBox="0 0 512 512" xmlns="http://www.w3.org/2000/svg" xmlns:xlink="http://www.w3.org/1999/xlink">
    <path id="Trac" fill="#797979" stroke="none" d="M 328 256 C 328 295.799988 295.799988 328 256 328 C 216.199997 328 184 295.799988 184 256 C 184 216.200012 216.199997 184 256 184 C 295.799988 184 328 216.200012 328 256 Z M 432 184 C 392.200012 184 360 216.200012 360 256 C 360 295.799988 392.200012 328 432 328 C 471.799988 328 504 295.799988 504 256 C 504 216.200012 471.799988 184 432 184 Z M 80 184 C 40.200001 184 8 216.200012 8 256 C 8 295.799988 40.200001 328 80 328 C 119.800003 328 152 295.799988 152 256 C 152 216.200012 119.800003 184 80 184 Z"/>
</svg>
